HIERARCHY
ROOT Hips
{
	OFFSET 0.000000 0.000000 0.000000
	CHANNELS 6 Xposition Yposition Zposition Xrotation Yrotation Zrotation
	JOINT LeftUpLeg_virtual
	{
		OFFSET 0.000000 0.000000 0.000000
		CHANNELS 3 Xrotation Yrotation Zrotation
		JOINT LeftUpLeg
		{
			OFFSET 10.205400 -3.823500 0.155100
			CHANNELS 3 Xrotation Yrotation Zrotation
			JOINT LeftLeg
			{
				OFFSET 0.708757 -12.982077 0.567790
				CHANNELS 3 Xrotation Yrotation Zrotation
				JOINT LeftFoot
				{
					OFFSET -0.708756 -10.717838 -2.184338
					CHANNELS 3 Xrotation Yrotation Zrotation
					JOINT LeftToeBase
					{
						OFFSET 0.108149 -7.191104 7.560241
						CHANNELS 3 Xrotation Yrotation Zrotation
						JOINT LeftToe_End
						{
							OFFSET 0.070230 0.081724 4.490308
							CHANNELS 3 Xrotation Yrotation Zrotation
							End Site
							{
								OFFSET 0 0 0
							}
						}
					}
				}
			}
		}
	}
	JOINT RightUpLeg_virtual
	{
		OFFSET 0.000000 0.000000 0.000000
		CHANNELS 3 Xrotation Yrotation Zrotation
		JOINT RightUpLeg
		{
			OFFSET -10.205400 -3.823500 0.005500
			CHANNELS 3 Xrotation Yrotation Zrotation
			JOINT RightLeg
			{
				OFFSET -0.708756 -12.982134 0.610632
				CHANNELS 3 Xrotation Yrotation Zrotation
				JOINT RightFoot
				{
					OFFSET 0.708754 -10.717769 -1.945823
					CHANNELS 3 Xrotation Yrotation Zrotation
					JOINT RightToeBase
					{
						OFFSET -0.108140 -7.191069 7.372968
						CHANNELS 3 Xrotation Yrotation Zrotation
						JOINT RightToe_End
						{
							OFFSET -0.070227 0.081735 4.479403
							CHANNELS 3 Xrotation Yrotation Zrotation
							End Site
							{
								OFFSET 0 0 0
							}
						}
					}
				}
			}
		}
	}
	JOINT Spine_virtual
	{
		OFFSET 0.000000 0.000000 0.000000
		CHANNELS 3 Xrotation Yrotation Zrotation
		JOINT Spine
		{
			OFFSET 0.000000 6.876099 0.125700
			CHANNELS 3 Xrotation Yrotation Zrotation
			JOINT Spine1
			{
				OFFSET 0.000000 5.730043 0.104720
				CHANNELS 3 Xrotation Yrotation Zrotation
				JOINT Spine1_split
				{
					OFFSET 0.000000 5.730043 0.104720
					CHANNELS 3 Xrotation Yrotation Zrotation
					JOINT Spine2
					{
						OFFSET 0.000000 5.730043 0.104720
						CHANNELS 3 Xrotation Yrotation Zrotation
						JOINT Neck_virtual
						{
							OFFSET 0.000000 0.000000 0.000000
							CHANNELS 3 Xrotation Yrotation Zrotation
							JOINT Neck
							{
								OFFSET 0.000000 10.314075 0.188496
								CHANNELS 3 Xrotation Yrotation Zrotation
								JOINT Head
								{
									OFFSET 0.000000 7.643700 -2.377400
									CHANNELS 3 Xrotation Yrotation Zrotation
									JOINT HeadTop_End
									{
										OFFSET 0.000000 43.788605 -13.619600
										CHANNELS 3 Xrotation Yrotation Zrotation
										End Site
										{
											OFFSET 0 0 0
										}
									}
								}
							}
						}
						JOINT LeftShoulder_virtual
						{
							OFFSET 0.000000 0.000000 0.000000
							CHANNELS 3 Xrotation Yrotation Zrotation
							JOINT LeftShoulder
							{
								OFFSET 2.196100 4.412489 0.087492
								CHANNELS 3 Xrotation Yrotation Zrotation
								JOINT LeftShoulder_split
								{
									OFFSET 2.196100 4.412489 0.087492
									CHANNELS 3 Xrotation Yrotation Zrotation
									JOINT LeftArm
									{
										OFFSET 8.771219 -2.981674 -0.026999
										CHANNELS 3 Xrotation Yrotation Zrotation
										JOINT LeftForeArm
										{
											OFFSET 8.512804 0.000000 -0.000000
											CHANNELS 3 Xrotation Yrotation Zrotation
											JOINT LeftHand
											{
												OFFSET 18.484802 0.000000 -0.000000
												CHANNELS 3 Xrotation Yrotation Zrotation
												End Site
												{
													OFFSET 0 0 0
												}
											}
										}
									}
								}
							}
						}
						JOINT RightShoulder_virtual
						{
							OFFSET 0.000000 0.000000 0.000000
							CHANNELS 3 Xrotation Yrotation Zrotation
							JOINT RightShoulder
							{
								OFFSET -2.196100 4.412496 0.070690
								CHANNELS 3 Xrotation Yrotation Zrotation
								JOINT RightShoulder_split
								{
									OFFSET -2.196100 4.412496 0.070690
									CHANNELS 3 Xrotation Yrotation Zrotation
									JOINT RightArm
									{
										OFFSET -8.771282 -2.981682 -0.094208
										CHANNELS 3 Xrotation Yrotation Zrotation
										JOINT RightForeArm
										{
											OFFSET -8.494598 0.000000 0.000000
											CHANNELS 3 Xrotation Yrotation Zrotation
											JOINT RightHand
											{
												OFFSET -18.483803 0.000000 0.000001
												CHANNELS 3 Xrotation Yrotation Zrotation
												End Site
												{
													OFFSET 0 0 0
												}
											}
										}
									}
								}
							}
						}
					}
				}
			}
		}
	}
}
MOTION
Frames: 11
Frame Time: 0.03333333
22.460438 31.007500 9.467777 0.000000 0.000000 0.000000 -14.526533 -58.752263 -14.948624 -14.095077 4.873328 12.358024 49.145267 -9.270901 2.761621 -29.894239 16.390929 0.683560 -5.623130 -0.515480 2.061548 0.000000 0.000000 0.000000 -11.748500 -56.433516 -13.165649 -13.941726 20.677518 -16.208596 51.930266 -1.593862 -8.531862 9.020685 0.301659 31.534888 -33.014204 -3.214654 8.237046 0.000000 0.000000 0.000000 -14.220824 -57.370304 -14.264743 10.378378 7.855492 -0.337051 3.911867 13.655619 -1.350428 1.387100 -3.439450 0.755957 0.000000 0.000000 0.000000 2.934270 13.577479 -1.895959 -4.060102 -2.308160 0.228813 3.255597 -39.304771 4.018846 0.000000 0.000000 0.000000 3.582462 13.124062 -1.953047 -5.258610 -18.281428 -26.260836 -3.250721 3.276911 -8.156237 -21.345736 23.606170 -41.688295 -2.565906 -37.992606 -2.435120 0.000000 0.000000 0.000000 0.995374 13.289064 -1.621941 18.752721 -22.738034 22.423993 1.278729 3.040901 0.460422 18.040729 -20.744142 41.743497 179.917851 68.533408 178.628831 0.000000 0.000000 0.000000 
22.348486 31.217752 10.544829 0.000000 0.000000 0.000000 -14.627567 -56.760730 -15.257623 -11.417555 4.641321 10.564000 47.245177 -9.492067 2.634229 -30.778058 14.694401 1.890779 -5.812247 -0.432033 2.545598 0.000000 0.000000 0.000000 -11.836746 -54.170855 -13.405994 -20.755792 22.208766 -11.320387 56.391760 -0.365180 -8.843054 9.411476 6.604263 29.639521 -31.300728 -2.652782 7.985279 0.000000 0.000000 0.000000 -14.069239 -55.458257 -14.175488 10.549611 5.595110 -0.084198 4.158792 13.395158 -1.345934 1.222284 -3.448348 0.691453 0.000000 0.000000 0.000000 3.090937 13.369176 -1.885865 -3.836496 -2.258977 0.516711 4.156479 -40.036629 4.491021 0.000000 0.000000 0.000000 3.640345 12.951360 -1.963356 -5.678589 -19.632078 -26.641079 -2.950319 3.315546 -8.107565 -22.194561 21.111584 -41.267709 -2.334876 -39.237019 -2.181144 0.000000 0.000000 0.000000 1.165517 13.122287 -1.677846 18.900411 -23.196045 22.967525 1.074906 2.909382 0.432236 19.415800 -23.299432 43.121228 -179.986099 68.268082 178.412970 0.000000 0.000000 0.000000 
22.222107 31.441917 11.713218 0.000000 0.000000 0.000000 -13.980629 -54.594221 -15.091723 -8.529416 4.628005 8.984819 44.337121 -9.745250 2.308582 -32.049676 12.213146 3.615848 -5.909817 -0.377822 2.907749 0.000000 0.000000 0.000000 -11.495792 -51.463225 -13.417810 -27.325773 21.828687 -5.968279 58.925756 0.399006 -8.280763 7.844900 11.434489 27.072783 -26.261374 -1.046380 6.542457 0.000000 0.000000 0.000000 -13.176314 -53.216927 -13.611059 10.831740 3.354187 0.319882 4.317427 13.056782 -1.331586 1.013453 -3.601003 0.778688 0.000000 0.000000 0.000000 3.165220 13.071391 -1.834928 -3.709043 -2.160007 0.906592 4.987586 -40.703881 4.982763 0.000000 0.000000 0.000000 3.602488 12.693615 -1.978191 -6.118294 -21.295531 -26.822126 -2.663576 3.489393 -8.092919 -22.996108 18.477415 -41.019695 -2.036701 -40.533201 -1.915360 0.000000 0.000000 0.000000 1.248171 12.861912 -1.729400 18.984313 -23.470393 23.544500 0.917309 2.865297 0.369556 19.798347 -24.905243 43.641132 -179.702578 68.864371 178.045710 0.000000 0.000000 0.000000 
22.066536 31.648333 12.953232 0.000000 0.000000 0.000000 -12.710825 -52.306381 -14.467683 -5.681211 4.669699 7.804335 41.314189 -10.273622 1.804250 -32.778764 9.145244 5.146828 -6.452261 -0.358915 3.195536 0.000000 0.000000 0.000000 -10.906482 -48.621764 -13.218117 -32.672927 20.194011 -1.507635 59.165366 0.318721 -6.950374 6.067077 14.274078 24.204739 -19.895899 0.890940 4.031078 0.000000 0.000000 0.000000 -11.812419 -50.613372 -12.704967 11.217570 1.216334 0.847689 4.383286 12.655344 -1.320744 0.880065 -3.871633 0.895535 0.000000 0.000000 0.000000 3.163306 12.695483 -1.769214 -3.666033 -2.062554 1.385374 5.717022 -41.363161 5.565664 0.000000 0.000000 0.000000 3.495934 12.364028 -2.013259 -6.552817 -23.228078 -26.751599 -2.378155 3.735080 -8.191063 -23.700601 15.746096 -40.970265 -1.794824 -42.356858 -1.729251 0.000000 0.000000 0.000000 1.274151 12.528339 -1.798026 19.021045 -23.638982 24.070495 0.936705 2.927272 0.323506 19.095658 -25.342225 43.266089 -179.289337 69.881018 177.597349 0.000000 0.000000 0.000000 
21.886206 31.787025 14.257569 0.000000 0.000000 0.000000 -11.144296 -49.888958 -13.532271 -3.064253 4.916185 7.092929 38.995107 -10.889686 0.995094 -32.562411 5.752002 6.464886 -7.489366 -0.369766 3.384839 0.000000 0.000000 0.000000 -9.965762 -45.754604 -12.672305 -36.566668 18.460415 1.334212 56.399317 -0.266136 -5.292346 5.476309 15.147483 22.109828 -14.350227 2.397050 1.062339 0.000000 0.000000 0.000000 -10.259621 -47.778929 -11.573008 11.646274 -0.753391 1.445899 4.382231 12.214226 -1.313394 0.866360 -4.118120 1.014273 0.000000 0.000000 0.000000 3.116259 12.281413 -1.709868 -3.674478 -1.999623 1.924090 6.345061 -42.045606 6.297045 0.000000 0.000000 0.000000 3.354327 11.993638 -2.063088 -6.943106 -25.399930 -26.371044 -2.192942 3.961760 -8.407133 -24.248934 13.026837 -41.089633 -1.727722 -44.858227 -1.684775 0.000000 0.000000 0.000000 1.280768 12.149786 -1.886586 19.077033 -23.802536 24.558901 1.005052 2.973281 0.325498 17.397539 -24.674461 42.286043 -178.759069 70.864476 177.105699 0.000000 0.000000 0.000000 
21.690531 31.813200 15.621064 0.000000 0.000000 0.000000 -9.371259 -47.300289 -12.258253 -0.859891 5.475046 6.675582 37.687864 -11.245090 -0.170303 -31.861832 2.203308 8.045796 -8.817897 -0.385550 3.499280 0.000000 0.000000 0.000000 -8.664186 -42.990283 -11.745846 -38.949546 17.455293 2.539817 50.418151 -1.069660 -3.744546 6.772912 14.211081 21.362759 -10.739089 3.130703 -1.538574 0.000000 0.000000 0.000000 -8.767480 -44.844030 -10.322149 12.050208 -2.515949 2.050985 4.357802 11.760821 -1.311363 0.980377 -4.365046 1.061533 0.000000 0.000000 0.000000 3.067297 11.873178 -1.667976 -3.673247 -2.022673 2.472238 6.881689 -42.829114 7.179927 0.000000 0.000000 0.000000 3.201284 11.623567 -2.122019 -7.257680 -27.757972 -25.688499 -2.170312 4.182578 -8.725307 -24.759789 10.461481 -41.286117 -1.899210 -47.817977 -1.795310 0.000000 0.000000 0.000000 1.293710 11.772277 -1.991833 19.153483 -24.036452 24.942558 1.197611 3.000911 0.406923 14.813786 -23.170940 41.130204 -178.196125 71.758336 176.630932 0.000000 0.000000 0.000000 
21.457460 31.757999 16.975517 0.000000 0.000000 0.000000 -7.481484 -44.522202 -10.678242 0.924617 6.049729 6.405957 37.252852 -11.403743 -1.497374 -31.249427 -1.231716 9.357037 -9.936485 -0.335460 3.693393 0.000000 0.000000 0.000000 -6.912735 -40.433572 -10.322155 -40.121242 17.478782 2.785181 41.678033 -2.183876 -2.722525 9.678526 11.508482 21.432512 -8.123433 3.171574 -3.234549 0.000000 0.000000 0.000000 -7.389542 -42.092318 -9.068150 12.359915 -4.091097 2.603693 4.352053 11.329080 -1.320121 1.108604 -4.650009 1.098655 0.000000 0.000000 0.000000 3.074372 11.521513 -1.658525 -3.628945 -2.147445 2.972166 7.370693 -43.732018 8.203659 0.000000 0.000000 0.000000 3.094376 11.304606 -2.189930 -7.450889 -30.165216 -24.744952 -2.246729 4.391233 -8.981379 -25.431494 8.061887 -41.484260 -2.264815 -50.814651 -2.003533 0.000000 0.000000 0.000000 1.341097 11.440639 -2.102632 19.232329 -24.371887 25.214127 1.439717 2.985236 0.576403 11.744436 -21.096269 40.162421 -177.759881 72.745777 176.322945 0.000000 0.000000 0.000000 
21.163887 31.639965 18.300718 0.000000 0.000000 0.000000 -5.657190 -41.689214 -8.956872 2.441732 6.598462 5.997883 37.126210 -11.107794 -2.812751 -31.674709 -4.461690 10.707248 -9.933631 -0.195575 3.856243 0.000000 0.000000 0.000000 -4.893585 -37.757569 -8.561325 -40.761469 18.245300 2.841923 31.504340 -3.485967 -2.218886 13.158395 7.209826 21.748362 -5.421982 2.674513 -3.762160 0.000000 0.000000 0.000000 -6.158995 -39.643002 -7.828876 12.499154 -5.476729 3.048239 4.386822 10.954800 -1.346062 1.225367 -4.916114 1.138223 0.000000 0.000000 0.000000 3.153186 11.264530 -1.677937 -3.536673 -2.356287 3.362066 7.865414 -44.718324 9.304293 0.000000 0.000000 0.000000 3.043424 11.078125 -2.265631 -7.494609 -32.485527 -23.623169 -2.401989 4.569693 -9.146223 -26.431618 5.779882 -41.692093 -2.714952 -53.436747 -2.220953 0.000000 0.000000 0.000000 1.417392 11.190704 -2.208403 19.306722 -24.744011 25.455217 1.789864 2.989869 0.745207 8.674319 -18.777747 39.821413 -177.407620 74.432984 176.112330 0.000000 0.000000 0.000000 
20.786856 31.485754 19.565783 0.000000 0.000000 0.000000 -3.842303 -38.876436 -7.160538 3.950719 6.742181 5.269761 36.866352 -10.580211 -3.801938 -32.898545 -7.422248 11.907242 -9.008074 0.006735 4.054933 0.000000 0.000000 0.000000 -2.951448 -35.013930 -6.744557 -41.634381 19.203383 3.259886 22.234363 -4.946815 -2.186455 16.607272 1.774738 21.737970 -3.210827 1.962545 -3.400241 0.000000 0.000000 0.000000 -4.986853 -37.553729 -6.626385 12.494556 -6.679148 3.430351 4.449560 10.665994 -1.388750 1.254399 -4.992613 1.209687 0.000000 0.000000 0.000000 3.310636 11.102461 -1.731945 -3.403241 -2.618289 3.573469 8.335437 -45.748399 10.348797 0.000000 0.000000 0.000000 3.067882 10.948670 -2.354054 -7.405339 -34.509964 -22.482659 -2.478147 4.590434 -9.147470 -27.768920 3.492264 -42.023347 -3.094980 -55.530985 -2.329906 0.000000 0.000000 0.000000 1.531866 11.046071 -2.307358 19.310927 -25.091839 25.613001 2.169023 3.151109 0.961643 6.264203 -16.522670 40.251524 -177.223629 77.061964 176.091880 0.000000 0.000000 0.000000 
20.336714 31.340179 20.815615 0.000000 0.000000 0.000000 -2.208499 -36.275261 -5.525253 5.686998 6.248572 4.342704 36.337757 -10.154355 -4.139144 -33.915933 -9.913236 12.650090 -8.204032 0.178305 4.344536 0.000000 0.000000 0.000000 -1.307875 -32.338897 -5.117791 -43.505658 19.793866 4.473986 15.695404 -6.463773 -2.454900 19.623123 -4.283020 21.049859 -2.153695 1.277276 -2.540431 0.000000 0.000000 0.000000 -3.738601 -35.932409 -5.481510 12.379679 -7.708594 3.828756 4.504681 10.459759 -1.438931 1.244454 -4.908947 1.307547 0.000000 0.000000 0.000000 3.499909 11.007746 -1.800564 -3.246528 -2.866667 3.569710 8.721691 -46.726738 11.199281 0.000000 0.000000 0.000000 3.147261 10.888543 -2.444083 -7.213247 -36.073016 -21.441666 -2.518639 4.474337 -8.980187 -29.410330 1.119019 -42.642158 -3.326781 -57.176999 -2.281986 0.000000 0.000000 0.000000 1.670933 10.974523 -2.387515 19.251462 -25.370087 25.776343 2.461826 3.380964 1.175734 5.028689 -14.800644 41.484622 -177.192360 80.230599 176.228306 0.000000 0.000000 0.000000 
19.837210 31.207417 22.069838 0.000000 0.000000 0.000000 -0.745420 -34.023033 -4.196387 7.865254 5.368404 3.303545 35.398306 -9.540432 -3.877889 -34.267056 -11.864153 13.892783 -8.584047 0.245991 4.443353 0.000000 0.000000 0.000000 -0.122250 -29.855744 -3.926998 -46.345036 19.520566 6.376184 12.699511 -7.945250 -2.685543 21.942874 -10.272464 19.361126 -2.017375 0.735951 -1.624206 0.000000 0.000000 0.000000 -2.512221 -34.750080 -4.466267 12.248148 -8.601390 4.347486 4.496721 10.309476 -1.458347 1.343999 -4.706668 1.187977 0.000000 0.000000 0.000000 3.636744 10.920626 -1.835920 -3.059440 -3.078841 3.355668 8.896617 -47.577452 11.696588 0.000000 0.000000 0.000000 3.227735 10.828218 -2.494727 -6.952414 -37.074670 -20.557865 -2.473504 4.206069 -8.618156 -31.124646 -1.196858 -43.606168 -3.349839 -58.435636 -2.036833 0.000000 0.000000 0.000000 1.801243 10.914329 -2.422249 19.125020 -25.604644 25.876231 2.562983 3.655848 1.321959 5.232171 -14.228708 43.389330 -177.306137 82.987816 176.499328 0.000000 0.000000 0.000000 
